<svg width="436.725" xmlns="http://www.w3.org/2000/svg" height="325.597" id="screenshot-c7b46b55-9129-8096-8006-2bd9ab4066fd" viewBox="0 0 436.725 325.597" xmlns:xlink="http://www.w3.org/1999/xlink" fill="none" version="1.1"><g id="shape-c7b46b55-9129-8096-8006-2bd9ab4066fd" rx="0" ry="0"><g id="shape-c7b46b55-9129-8096-8006-2bd9ab40d1dc"><g class="fills" id="fills-c7b46b55-9129-8096-8006-2bd9ab40d1dc"><path d="M116.492,226.328C116.155,226.941,115.817,227.554,115.372,228.494C114.973,229.374,114.682,229.928,114.391,230.481C113.991,231.045,113.592,231.609,113.062,232.505C112.683,233.144,112.433,233.451,112.183,233.758C112.014,233.996,111.845,234.234,111.476,234.736C110.994,235.293,110.711,235.587,110.429,235.880C108.869,237.127,107.310,238.373,105.387,239.882C104.705,240.398,104.385,240.652,104.066,240.906C103.762,240.942,103.458,240.979,102.861,241.214C100.517,242.073,98.468,242.734,96.418,243.394C94.893,243.534,93.367,243.674,91.525,243.838C90.766,243.913,90.324,243.964,89.881,244.015C88.202,243.773,86.523,243.531,84.577,243.243C84.163,243.084,84.011,243.073,83.715,243.075C83.054,242.842,82.532,242.698,81.860,242.461C80.979,242.112,80.247,241.856,79.516,241.600C79.403,241.474,79.290,241.348,78.838,241.097C78.235,240.822,77.970,240.672,77.705,240.521C77.259,240.231,76.813,239.940,76.053,239.527C75.292,239.140,74.844,238.876,74.396,238.611C74.396,238.611,74.319,238.462,74.126,238.314C73.745,238.009,73.556,237.851,73.367,237.694C73.131,237.510,72.895,237.326,72.370,236.935C69.968,234.418,67.857,232.109,65.732,229.774C65.719,229.748,65.682,229.704,65.682,229.704C65.584,229.454,65.485,229.205,65.226,228.684C64.616,227.761,64.167,227.110,63.718,226.458C63.718,226.458,63.737,226.343,63.695,226.080C62.909,224.533,62.164,223.249,61.439,221.811C61.320,221.392,61.179,221.125,60.964,220.689C60.727,220.335,60.564,220.150,60.400,219.965C60.265,219.518,60.129,219.071,59.774,218.313C59.077,217.152,58.599,216.303,58.122,215.454C58.071,215.155,58.020,214.856,57.802,214.269C57.467,213.798,57.300,213.614,57.133,213.430C57.087,213.127,57.042,212.824,56.830,212.231C56.498,211.756,56.332,211.572,56.166,211.388C56.117,211.152,56.068,210.916,55.883,210.337C55.235,209.103,54.722,208.212,54.210,207.321C54.066,206.880,53.922,206.439,53.575,205.669C52.808,204.338,52.246,203.336,51.683,202.334C51.629,202.031,51.575,201.729,51.324,201.154C50.972,200.689,50.817,200.497,50.662,200.306C50.662,200.306,50.700,200.153,50.653,199.901C50.290,199.197,49.975,198.745,49.660,198.293C49.609,197.993,49.559,197.694,49.335,197.088C48.925,196.447,48.687,196.113,48.486,195.623C48.356,195.201,48.191,194.936,47.972,194.540C47.848,194.348,47.778,194.286,47.667,194.053C47.433,193.468,47.239,193.054,46.972,192.469C46.742,192.109,46.584,191.919,46.438,191.576C46.319,191.153,46.189,190.883,45.994,190.438C45.764,190.079,45.598,189.894,45.406,189.535C45.176,188.948,44.974,188.536,44.721,187.992C44.599,187.798,44.528,187.736,44.421,187.502C44.188,186.916,43.991,186.503,43.721,185.920C43.492,185.558,43.336,185.367,43.183,185.023C43.060,184.601,42.935,184.332,42.741,183.890C42.510,183.531,42.346,183.346,42.156,182.982C42.037,182.586,41.943,182.368,41.827,181.996C41.602,181.605,41.401,181.368,41.167,180.958C40.934,180.373,40.735,179.961,40.464,179.377C40.239,179.012,40.085,178.819,39.941,178.472C39.817,178.053,39.685,177.786,39.487,177.344C39.261,176.981,39.102,176.792,38.932,176.451C38.806,176.029,38.689,175.758,38.511,175.311C38.286,174.948,38.123,174.760,37.962,174.473C37.965,174.373,37.814,174.240,37.848,174.044C37.581,173.412,37.280,172.977,36.964,172.390C36.840,171.965,36.731,171.690,36.550,171.224C36.246,170.696,36.012,170.360,35.816,169.868C35.684,169.447,35.516,169.182,35.260,168.717C34.083,166.052,32.994,163.586,31.905,161.121C31.805,160.672,31.705,160.223,31.564,159.427C31.037,156.902,30.550,154.723,30.087,152.465C30.111,152.385,30.049,152.229,30.057,152.088C29.984,151.589,29.904,151.229,29.898,150.700C30.427,145.256,30.881,139.981,31.438,134.569C31.744,133.667,31.945,132.901,32.016,132.113C31.885,132.091,32.147,132.131,32.238,132.010C32.381,131.607,32.433,131.324,32.599,130.900C32.938,130.092,33.162,129.425,33.502,128.649C33.700,128.245,33.783,127.949,34.000,127.536C34.411,126.788,34.687,126.156,35.098,125.369C36.566,123.103,37.899,120.993,39.380,118.793C39.746,118.296,39.965,117.890,40.340,117.390C40.657,117.114,40.818,116.933,41.140,116.654C41.648,116.038,41.994,115.520,42.554,114.864C59.250,101.234,75.746,87.757,92.211,74.243C102.767,65.577,113.277,56.856,124.034,48.045C127.058,45.586,129.856,43.242,132.851,40.812C133.567,40.245,134.086,39.764,134.750,39.238C135.249,38.846,135.603,38.500,136.147,38.081C136.733,37.644,137.128,37.278,137.728,36.834C139.149,35.850,140.364,34.945,141.755,34.046C142.314,33.807,142.697,33.560,143.260,33.227C143.770,32.917,144.100,32.694,144.586,32.509C145.001,32.373,145.259,32.200,145.703,31.947C146.594,31.513,147.302,31.159,148.091,30.825C148.174,30.844,148.277,30.712,148.485,30.744C150.084,30.234,151.476,29.692,153.050,29.201C155.084,28.791,156.936,28.330,158.941,27.929C159.406,27.900,159.719,27.812,160.203,27.743C161.749,27.617,163.123,27.474,164.657,27.403C165.502,27.452,166.188,27.429,167.044,27.471C169.399,27.744,171.583,27.952,173.912,28.260C174.748,28.440,175.439,28.519,176.236,28.702C176.624,28.852,176.905,28.898,177.312,29.047C177.858,29.195,178.279,29.240,178.702,29.202C178.703,29.120,178.681,29.282,178.829,29.401C180.181,29.931,181.384,30.344,182.715,30.830C183.185,31.033,183.528,31.161,184.021,31.424C185.709,32.321,187.248,33.082,188.787,33.898C188.873,34.050,188.968,34.080,189.245,34.248C189.877,34.713,190.339,34.972,190.909,35.408C191.594,35.967,192.171,36.350,192.826,36.870C193.195,37.107,193.487,37.206,193.902,37.469C194.462,37.913,194.899,38.195,195.373,38.561C195.409,38.646,195.591,38.658,195.695,38.811C195.986,39.124,196.174,39.284,196.438,39.579C196.800,39.822,197.085,39.929,197.479,40.186C197.780,40.492,197.972,40.647,198.241,40.944C198.602,41.203,198.885,41.320,199.312,41.602C200.952,42.940,202.447,44.113,204.023,45.423C204.386,45.673,204.669,45.787,205.088,46.070C206.727,47.413,208.230,48.586,209.822,49.883C210.191,50.119,210.471,50.232,210.870,50.517C211.432,50.991,211.875,51.292,212.349,51.661C212.379,51.728,212.526,51.726,212.654,51.897C213.561,52.663,214.339,53.260,215.194,53.997C215.543,54.273,215.816,54.409,216.239,54.704C217.289,55.570,218.189,56.276,219.172,57.115C219.540,57.353,219.826,57.459,220.218,57.717C220.514,58.028,220.703,58.185,220.972,58.480C221.335,58.732,221.617,58.847,222.008,59.108C222.307,59.407,222.496,59.558,222.764,59.850C223.121,60.117,223.399,60.244,223.825,60.534C226.069,62.317,228.165,63.938,230.260,65.558C230.615,65.850,230.970,66.143,231.617,66.654C232.683,67.477,233.458,68.080,234.233,68.684C234.476,68.857,234.719,69.030,235.219,69.383C235.663,69.722,235.850,69.882,236.037,70.042C236.274,70.232,236.511,70.423,237.013,70.771C237.463,71.089,237.648,71.247,237.911,71.547C238.272,71.805,238.555,71.922,238.979,72.204C240.017,73.090,240.914,73.809,241.812,74.529C242.055,74.699,242.299,74.870,242.797,75.224C243.235,75.571,243.419,75.734,243.695,76.047C244.193,76.424,244.600,76.649,245.138,77.064C248.069,80.433,250.869,83.613,253.668,86.792C253.738,87.078,253.808,87.364,254.072,87.939C254.511,88.558,254.755,88.888,254.999,89.217C255.050,89.521,255.100,89.824,255.326,90.362C255.567,90.663,255.633,90.730,255.698,90.797C255.698,90.797,255.684,90.988,255.717,91.256C256.517,94.863,257.285,98.201,258.053,101.540C258.053,101.540,258.120,101.528,258.011,101.682C257.749,103.778,257.595,105.721,257.442,107.664C257.442,107.664,257.527,107.656,257.385,107.795C256.949,109.096,256.654,110.257,256.359,111.419C256.359,111.419,256.423,111.411,256.269,111.549C252.453,121.587,245.395,127.445,235.051,129.370C232.962,129.759,230.857,130.066,228.759,130.411C228.637,130.267,228.484,130.206,228.037,130.188C227.329,130.127,226.883,130.107,226.438,130.086C225.489,129.995,224.539,129.903,223.369,129.950C223.016,130.075,222.885,130.073,222.583,130.044C221.837,129.979,221.262,129.954,220.545,129.843C219.756,129.733,219.109,129.710,218.461,129.686C217.298,129.514,216.134,129.341,214.661,129.103C213.224,128.838,212.097,128.638,210.789,128.378C207.876,127.921,205.145,127.526,202.414,127.131C202.414,127.131,202.424,127.210,202.276,127.078C200.619,126.728,199.110,126.510,197.601,126.292C197.386,126.226,197.170,126.159,196.649,126.049C195.211,125.917,194.078,125.830,192.946,125.742C192.274,125.636,191.602,125.530,190.614,125.418C189.727,125.485,189.157,125.559,188.587,125.633C188.456,125.481,188.298,125.440,187.829,125.517C183.014,125.962,178.592,127.050,175.039,129.863C165.324,137.554,155.808,145.496,146.213,153.339C144.796,154.443,143.379,155.547,141.614,156.939C139.149,159.007,137.032,160.787,134.914,162.566C134.187,163.111,133.459,163.655,132.407,164.485C127.708,168.571,124.080,172.875,122.822,178.774C122.591,179.477,122.360,180.180,122.062,181.212C121.719,184.172,121.442,186.801,121.165,189.431C121.027,191.233,120.890,193.035,120.738,195.181C120.723,196.401,120.722,197.277,120.721,198.154C120.610,199.960,120.498,201.766,120.372,203.900C120.349,204.929,120.341,205.631,120.333,206.333C120.214,207.220,120.094,208.106,119.946,209.319C119.734,211.631,119.550,213.618,119.366,215.604C118.989,217.209,118.612,218.814,118.156,220.735C117.899,221.888,117.722,222.725,117.425,223.682C117.284,223.914,117.261,224.025,117.178,224.261C116.909,225.034,116.700,225.681,116.492,226.328ZM176.037,64.385C175.595,70.768,181.510,76.961,187.155,75.794C191.770,74.840,194.984,71.996,196.415,67.434C197.714,63.295,195.418,60.240,192.778,57.504C190.146,54.775,186.948,53.934,183.415,55.570C179.757,57.266,176.565,59.402,176.351,64.082C176.351,64.082,176.317,64.139,176.037,64.385ZM182.699,85.774C182.699,85.774,182.631,85.740,182.366,85.452C180.696,85.998,178.913,86.330,177.379,87.131C172.515,89.671,170.772,95.358,173.263,100.025C176.167,105.466,181.850,107.544,186.898,105.011C190.394,103.257,193.249,98.782,192.949,95.526C192.633,92.104,188.121,86.624,184.790,85.724C184.163,85.555,183.447,85.735,182.699,85.774ZM59.752,170.371C60.302,170.847,60.953,171.247,61.386,171.813C63.118,174.072,64.614,174.152,66.935,172.299C70.968,169.080,75.392,166.350,79.586,163.460C83.838,168.062,87.907,172.468,92.510,177.451C95.028,175.392,97.468,173.606,99.665,171.558C104.014,167.506,103.338,167.869,100.364,163.758C97.722,160.107,95.140,156.413,92.603,152.839C96.886,148.760,100.886,145.017,104.781,141.168C105.336,140.619,105.882,139.174,105.586,138.785C102.806,135.123,99.841,131.601,96.855,127.948C91.386,131.781,86.406,135.272,81.256,138.881C77.606,134.935,74.058,131.024,70.401,127.218C69.797,126.589,68.437,125.861,67.901,126.126C63.857,128.120,60.409,130.891,57.820,134.612C61.351,139.647,64.744,144.484,68.265,149.504C64.638,152.834,61.053,156.084,57.514,159.383C54.427,162.261,54.419,162.304,56.621,165.961C57.462,167.359,58.479,168.654,59.752,170.371ZM146.307,85.013C141.113,88.852,140.384,93.978,144.270,99.336C147.755,104.141,153.541,105.271,158.275,101.537C162.886,97.900,164.261,93.564,160.975,88.554C157.069,82.598,152.202,81.349,146.307,85.013ZM150.527,71.122C152.971,72.730,155.575,73.084,158.245,71.993C162.262,70.352,165.131,67.479,165.432,63.036C165.730,58.638,162.908,55.472,159.473,53.281C157.823,52.229,155.294,51.763,153.372,52.111C146.027,53.441,142.899,60.340,146.524,66.908C147.368,68.438,148.915,69.586,150.527,71.122ZL150.527,71.122Z" style="fill: rgb(255, 255, 255);"/></g></g><g id="shape-c7b46b55-9129-8096-8006-2bd9ab40d1dd" rx="0" ry="0"><g id="shape-c7b46b55-9129-8096-8006-2bd9ab40d1de"><g class="fills" id="fills-c7b46b55-9129-8096-8006-2bd9ab40d1de"><path d="M426.382,237.122C426.022,237.137,425.746,237.297,425.186,237.958C423.622,239.529,422.427,240.746,421.310,242.022C421.389,242.082,421.269,241.926,420.940,242.023C418.277,243.656,415.943,245.192,413.360,246.828C412.532,247.270,411.954,247.613,411.023,248.007C408.528,248.900,406.387,249.742,403.934,250.657C403.230,250.901,402.838,251.071,402.083,251.196C401.059,251.393,400.398,251.636,399.510,251.831C398.965,251.820,398.686,251.946,397.980,252.116C386.157,252.248,374.802,252.425,362.989,252.505C357.841,252.540,353.150,252.673,348.009,252.668C309.138,252.723,270.718,252.954,232.298,253.095C197.536,253.222,162.773,253.250,127.840,252.867C127.866,240.096,128.370,227.774,128.189,215.463C127.890,195.100,134.966,178.176,150.373,164.756C167.753,149.617,187.080,140.071,210.926,140.030C283.513,139.905,356.098,139.162,428.685,138.687C430.630,138.674,432.577,138.969,434.484,139.521C434.418,140.997,434.392,142.072,434.276,143.222C434.186,143.297,434.245,143.524,433.974,143.811C432.814,146.732,431.925,149.366,430.797,152.184C430.115,153.265,429.673,154.161,428.933,155.206C424.511,159.569,420.385,163.785,416.259,168.000C416.259,168.000,416.385,168.075,415.998,168.090C406.066,174.465,395.406,176.874,384.104,176.951C324.897,177.350,265.690,177.716,206.483,178.151C199.042,178.206,192.240,180.464,186.266,185.006C186.266,185.006,186.389,185.085,186.035,185.110C184.546,186.116,183.411,187.098,182.275,188.079C181.959,188.081,181.690,188.194,181.089,188.771C173.042,195.962,168.938,204.410,168.965,214.656C258.295,214.656,347.475,214.656,436.725,214.656C436.610,223.702,431.834,230.567,426.382,237.122ZZ" style="fill: rgb(255, 255, 255); fill-opacity: 1;"/></g></g><g id="shape-c7b46b55-9129-8096-8006-2bd9ab40d1df"><g class="fills" id="fills-c7b46b55-9129-8096-8006-2bd9ab40d1df"><path d="M425.088,307.320C423.630,308.772,422.353,309.938,420.867,311.354C420.658,311.605,420.620,311.662,420.365,311.849C419.429,312.693,418.749,313.350,418.069,314.008C417.029,314.672,415.989,315.335,414.384,316.264C411.980,317.607,410.142,318.685,408.304,319.764C407.485,320.046,406.666,320.328,405.314,320.867C404.004,321.475,403.225,321.825,402.083,322.150C401.074,322.388,400.429,322.651,399.783,322.914C399.783,322.914,399.580,322.882,399.134,322.957C397.941,323.148,397.195,323.263,396.448,323.378C395.924,323.487,395.400,323.596,394.194,323.845C376.156,324.199,358.800,324.413,341.445,324.628C319.748,324.667,298.051,324.707,275.444,324.755C245.113,324.888,215.691,324.985,186.270,325.145C167.328,325.248,148.387,325.443,129.445,325.597C128.870,325.545,128.294,325.493,127.215,324.976C126.894,323.388,127.077,322.267,127.356,320.774C128.190,317.984,128.928,315.565,129.666,313.146C129.666,313.146,129.766,313.073,130.060,312.801C130.849,311.526,131.343,310.524,131.837,309.522C131.837,309.522,131.524,309.225,131.917,309.174C132.692,308.472,133.074,307.819,133.455,307.167C134.405,306.077,135.355,304.988,136.708,303.472C138.280,301.768,139.450,300.490,140.619,299.212C141.188,298.835,141.756,298.458,142.774,297.720C144.350,296.308,145.476,295.256,146.602,294.205C146.602,294.205,147.041,294.159,147.533,294.128C148.268,293.819,148.510,293.541,148.752,293.263C149.144,292.909,149.536,292.554,150.560,292.185C158.697,288.293,166.646,286.838,175.108,286.826C200.223,286.792,225.337,286.407,250.452,286.159C251.522,286.216,252.593,286.274,254.055,286.233C283.904,286.147,313.360,286.179,342.817,286.168C372.446,286.157,402.075,286.105,431.705,286.071C432.512,286.070,433.320,286.071,434.494,286.071C434.253,294.557,430.297,301.025,425.088,307.320ZZ" style="fill: rgb(255, 255, 255); fill-opacity: 1;"/></g></g></g></g></svg>